<svg width="32" height="32" viewBox="0 0 32 32" fill="none" xmlns="http://www.w3.org/2000/svg">
<path d="M25.9668 28.5H27.7334V26.7507H25.9668V28.5Z" fill="black"/>
<path d="M24.1995 28.5H25.9661V26.7507H24.1995V28.5Z" fill="black"/>
<path d="M17.1337 28.5H18.9003V26.7507H17.1337V28.5Z" fill="black"/>
<path d="M15.367 28.5H17.1337V26.7507H15.367V28.5Z" fill="black"/>
<path d="M25.9668 26.7507H27.7334V25.0007H25.9668V26.7507Z" fill="black"/>
<path d="M24.1995 26.7507H25.9661V25.0007H24.1995V26.7507Z" fill="black"/>
<path d="M22.4328 26.7507L24.1995 26.7507V25.0007H22.4328V26.7507Z" fill="black"/>
<path d="M20.6662 26.7507H22.4328V25.0007H20.6662V26.7507Z" fill="black"/>
<path d="M18.9003 26.7507L20.6662 26.7507V25.0007H18.9003L18.9003 26.7507Z" fill="black"/>
<path d="M17.1337 26.7507H18.9003L18.9003 25.0007H17.1337V26.7507Z" fill="black"/>
<path d="M15.367 26.7507H17.1337V25.0007H15.367V26.7507Z" fill="black"/>
<path d="M24.1995 25.0007H25.9661V23.2507H24.1995V25.0007Z" fill="black"/>
<path d="M22.4328 25.0007H24.1995V23.2507H22.4328V25.0007Z" fill="black"/>
<path d="M20.6662 25.0007H22.4328V23.2507H20.6662V25.0007Z" fill="black"/>
<path d="M18.9003 25.0007H20.6662V23.2507H18.9003V25.0007Z" fill="black"/>
<path d="M17.1337 25.0007H18.9003V23.2507H17.1337V25.0007Z" fill="black"/>
<path d="M27.7334 23.25H29.5V21.5H27.7334V23.25Z" fill="black"/>
<path d="M25.9668 23.25H27.7334V21.5H25.9668V23.25Z" fill="black"/>
<path d="M22.4328 23.25H24.1995V21.5H22.4328V23.25Z" fill="black"/>
<path d="M20.6662 23.25H22.4328V21.5H20.6662V23.25Z" fill="black"/>
<path d="M18.9003 23.25H20.6662V21.5H18.9003V23.25Z" fill="black"/>
<path d="M15.367 23.25H17.1337V21.5H15.367V23.25Z" fill="black"/>
<path d="M13.5997 23.25H15.3663V21.5H13.5997V23.25Z" fill="black"/>
<path d="M27.7334 21.5H29.5V19.75H27.7334V21.5Z" fill="black"/>
<path d="M25.9668 21.5H27.7334V19.75H25.9668V21.5Z" fill="black"/>
<path d="M15.367 21.5H17.1337V19.75H15.367V21.5Z" fill="black"/>
<path d="M13.5997 21.5H15.3663V19.75H13.5997V21.5Z" fill="black"/>
<path d="M24.1995 19.75H25.9661V18H24.1995V19.75Z" fill="black"/>
<path d="M22.4328 19.75H24.1995V18H22.4328V19.75Z" fill="black"/>
<path d="M18.9003 19.75H20.6662V18H18.9003V19.75Z" fill="black"/>
<path d="M17.1337 19.75L18.9003 19.75V18H17.1337L17.1337 19.75Z" fill="black"/>
<path d="M24.1995 18H25.9661V16.25H24.1995V18Z" fill="black"/>
<path d="M22.4328 18H24.1995V16.25H22.4328V18Z" fill="black"/>
<path d="M18.9003 18H20.6662V16.25H18.9003V18Z" fill="black"/>
<path d="M17.1337 18H18.9003V16.25H17.1337V18Z" fill="black"/>
<path d="M15.367 16.25L17.1337 16.25L17.1337 14.5H15.367V16.25Z" fill="black"/>
<path d="M13.5997 16.25H15.3663V14.5H13.5997V16.25Z" fill="black"/>
<path d="M6.53325 16.25H8.29987V14.5H6.53325V16.25Z" fill="black"/>
<path d="M4.76662 16.25H6.53325V14.5H4.76662V16.25Z" fill="black"/>
<path d="M15.367 14.4993H17.1337V12.75H15.367V14.4993Z" fill="black"/>
<path d="M13.5997 14.4993H15.3663V12.75H13.5997V14.4993Z" fill="black"/>
<path d="M11.8331 14.4993H13.5997V12.75H11.8331V14.4993Z" fill="black"/>
<path d="M10.0665 14.4993H11.8331V12.75H10.0665V14.4993Z" fill="black"/>
<path d="M8.29987 14.4993H10.0665V12.75H8.29987V14.4993Z" fill="black"/>
<path d="M6.53325 14.4993H8.29987V12.75H6.53325V14.4993Z" fill="black"/>
<path d="M4.76662 14.4993H6.53325V12.75H4.76662V14.4993Z" fill="black"/>
<path d="M13.5997 12.75H15.3663V11H13.5997V12.75Z" fill="black"/>
<path d="M11.8331 12.75H13.5997V11H11.8331V12.75Z" fill="black"/>
<path d="M10.0665 12.75H11.8331V11H10.0665V12.75Z" fill="black"/>
<path d="M8.29987 12.75H10.0665V11H8.29987V12.75Z" fill="black"/>
<path d="M6.53325 12.75H8.29987V11H6.53325V12.75Z" fill="black"/>
<path d="M17.1337 11H18.9003V9.25H17.1337V11Z" fill="black"/>
<path d="M15.367 11H17.1337V9.25H15.367V11Z" fill="black"/>
<path d="M11.8331 11H13.5997L13.5997 9.25H11.8331V11Z" fill="black"/>
<path d="M10.0665 11H11.8331V9.25H10.0665V11Z" fill="black"/>
<path d="M8.29987 11H10.0665V9.25H8.29987V11Z" fill="black"/>
<path d="M4.76662 11L6.53325 11L6.53324 9.25H4.76662V11Z" fill="black"/>
<path d="M3 11H4.76662V9.25H3V11Z" fill="black"/>
<path d="M17.1337 9.25H18.9003V7.5H17.1337V9.25Z" fill="black"/>
<path d="M15.367 9.25H17.1337V7.5H15.367V9.25Z" fill="black"/>
<path d="M4.76662 9.25H6.53324V7.5H4.76662V9.25Z" fill="black"/>
<path d="M3 9.25H4.76662V7.5H3V9.25Z" fill="black"/>
<path d="M13.5997 7.49999H15.3663V5.74999H13.5997V7.49999Z" fill="black"/>
<path d="M11.8331 7.49999H13.5997V5.74999H11.8331V7.49999Z" fill="black"/>
<path d="M8.29987 7.49999H10.0665V5.74999H8.29987V7.49999Z" fill="black"/>
<path d="M6.53324 7.5L8.29987 7.49999V5.74999H6.53325L6.53324 7.5Z" fill="black"/>
<path d="M13.5997 5.74999H15.3663V4H13.5997V5.74999Z" fill="black"/>
<path d="M11.8331 5.74999H13.5997V4H11.8331V5.74999Z" fill="black"/>
<path d="M8.29987 5.74999H10.0665V4H8.29987V5.74999Z" fill="black"/>
<path d="M6.53325 5.74999H8.29987V4H6.53325V5.74999Z" fill="black"/>
<path d="M25.9668 28.5H27.7334V26.7507H25.9668V28.5Z" fill="black"/>
<path d="M24.1995 28.5H25.9661V26.7507H24.1995V28.5Z" fill="black"/>
<path d="M17.1337 28.5H18.9003V26.7507H17.1337V28.5Z" fill="black"/>
<path d="M15.367 28.5H17.1337V26.7507H15.367V28.5Z" fill="black"/>
<path d="M25.9668 26.7507H27.7334V25.0007H25.9668V26.7507Z" fill="black"/>
<path d="M24.1995 26.7507H25.9661V25.0007H24.1995V26.7507Z" fill="black"/>
<path d="M22.4328 26.7507L24.1995 26.7507V25.0007H22.4328V26.7507Z" fill="black"/>
<path d="M20.6662 26.7507H22.4328V25.0007H20.6662V26.7507Z" fill="black"/>
<path d="M18.9003 26.7507L20.6662 26.7507V25.0007H18.9003L18.9003 26.7507Z" fill="black"/>
<path d="M17.1337 26.7507H18.9003L18.9003 25.0007H17.1337V26.7507Z" fill="black"/>
<path d="M15.367 26.7507H17.1337V25.0007H15.367V26.7507Z" fill="black"/>
<path d="M24.1995 25.0007H25.9661V23.2507H24.1995V25.0007Z" fill="black"/>
<path d="M22.4328 25.0007H24.1995V23.2507H22.4328V25.0007Z" fill="black"/>
<path d="M20.6662 25.0007H22.4328V23.2507H20.6662V25.0007Z" fill="black"/>
<path d="M18.9003 25.0007H20.6662V23.2507H18.9003V25.0007Z" fill="black"/>
<path d="M17.1337 25.0007H18.9003V23.2507H17.1337V25.0007Z" fill="black"/>
<path d="M27.7334 23.25H29.5V21.5H27.7334V23.25Z" fill="black"/>
<path d="M25.9668 23.25H27.7334V21.5H25.9668V23.25Z" fill="black"/>
<path d="M22.4328 23.25H24.1995V21.5H22.4328V23.25Z" fill="black"/>
<path d="M20.6662 23.25H22.4328V21.5H20.6662V23.25Z" fill="black"/>
<path d="M18.9003 23.25H20.6662V21.5H18.9003V23.25Z" fill="black"/>
<path d="M15.367 23.25H17.1337V21.5H15.367V23.25Z" fill="black"/>
<path d="M13.5997 23.25H15.3663V21.5H13.5997V23.25Z" fill="black"/>
<path d="M27.7334 21.5H29.5V19.75H27.7334V21.5Z" fill="black"/>
<path d="M25.9668 21.5H27.7334V19.75H25.9668V21.5Z" fill="black"/>
<path d="M15.367 21.5H17.1337V19.75H15.367V21.5Z" fill="black"/>
<path d="M13.5997 21.5H15.3663V19.75H13.5997V21.5Z" fill="black"/>
<path d="M24.1995 19.75H25.9661V18H24.1995V19.75Z" fill="black"/>
<path d="M22.4328 19.75H24.1995V18H22.4328V19.75Z" fill="black"/>
<path d="M18.9003 19.75H20.6662V18H18.9003V19.75Z" fill="black"/>
<path d="M17.1337 19.75L18.9003 19.75V18H17.1337L17.1337 19.75Z" fill="black"/>
<path d="M24.1995 18H25.9661V16.25H24.1995V18Z" fill="black"/>
<path d="M22.4328 18H24.1995V16.25H22.4328V18Z" fill="black"/>
<path d="M18.9003 18H20.6662V16.25H18.9003V18Z" fill="black"/>
<path d="M17.1337 18H18.9003V16.25H17.1337V18Z" fill="black"/>
<path d="M15.367 16.25L17.1337 16.25L17.1337 14.5H15.367V16.25Z" fill="black"/>
<path d="M13.5997 16.25H15.3663V14.5H13.5997V16.25Z" fill="black"/>
<path d="M6.53325 16.25H8.29987V14.5H6.53325V16.25Z" fill="black"/>
<path d="M4.76662 16.25H6.53325V14.5H4.76662V16.25Z" fill="black"/>
<path d="M15.367 14.4993H17.1337V12.75H15.367V14.4993Z" fill="black"/>
<path d="M13.5997 14.4993H15.3663V12.75H13.5997V14.4993Z" fill="black"/>
<path d="M11.8331 14.4993H13.5997V12.75H11.8331V14.4993Z" fill="black"/>
<path d="M10.0665 14.4993H11.8331V12.75H10.0665V14.4993Z" fill="black"/>
<path d="M8.29987 14.4993H10.0665V12.75H8.29987V14.4993Z" fill="black"/>
<path d="M6.53325 14.4993H8.29987V12.75H6.53325V14.4993Z" fill="black"/>
<path d="M4.76662 14.4993H6.53325V12.75H4.76662V14.4993Z" fill="black"/>
<path d="M13.5997 12.75H15.3663V11H13.5997V12.75Z" fill="black"/>
<path d="M11.8331 12.75H13.5997V11H11.8331V12.75Z" fill="black"/>
<path d="M10.0665 12.75H11.8331V11H10.0665V12.75Z" fill="black"/>
<path d="M8.29987 12.75H10.0665V11H8.29987V12.75Z" fill="black"/>
<path d="M6.53325 12.75H8.29987V11H6.53325V12.75Z" fill="black"/>
<path d="M17.1337 11H18.9003V9.25H17.1337V11Z" fill="black"/>
<path d="M15.367 11H17.1337V9.25H15.367V11Z" fill="black"/>
<path d="M11.8331 11H13.5997L13.5997 9.25H11.8331V11Z" fill="black"/>
<path d="M10.0665 11H11.8331V9.25H10.0665V11Z" fill="black"/>
<path d="M8.29987 11H10.0665V9.25H8.29987V11Z" fill="black"/>
<path d="M4.76662 11L6.53325 11L6.53324 9.25H4.76662V11Z" fill="black"/>
<path d="M3 11H4.76662V9.25H3V11Z" fill="black"/>
<path d="M17.1337 9.25H18.9003V7.5H17.1337V9.25Z" fill="black"/>
<path d="M15.367 9.25H17.1337V7.5H15.367V9.25Z" fill="black"/>
<path d="M4.76662 9.25H6.53324V7.5H4.76662V9.25Z" fill="black"/>
<path d="M3 9.25H4.76662V7.5H3V9.25Z" fill="black"/>
<path d="M13.5997 7.49999H15.3663V5.74999H13.5997V7.49999Z" fill="black"/>
<path d="M11.8331 7.49999H13.5997V5.74999H11.8331V7.49999Z" fill="black"/>
<path d="M8.29987 7.49999H10.0665V5.74999H8.29987V7.49999Z" fill="black"/>
<path d="M6.53324 7.5L8.29987 7.49999V5.74999H6.53325L6.53324 7.5Z" fill="black"/>
<path d="M13.5997 5.74999H15.3663V4H13.5997V5.74999Z" fill="black"/>
<path d="M11.8331 5.74999H13.5997V4H11.8331V5.74999Z" fill="black"/>
<path d="M8.29987 5.74999H10.0665V4H8.29987V5.74999Z" fill="black"/>
<path d="M6.53325 5.74999H8.29987V4H6.53325V5.74999Z" fill="black"/>
</svg>
