<?xml version="1.0" standalone="no"?>
<!DOCTYPE svg PUBLIC "-//W3C//DTD SVG 20010904//EN"
 "http://www.w3.org/TR/2001/REC-SVG-20010904/DTD/svg10.dtd">
<svg version="1.0" xmlns="http://www.w3.org/2000/svg"
 width="700.000000pt" height="700.000000pt" viewBox="0 0 700.000000 700.000000"
 preserveAspectRatio="xMidYMid meet">
<metadata>
Created by potrace 1.14, written by Peter Selinger 2001-2017
</metadata>
<g transform="translate(0.000000,700.000000) scale(0.100000,-0.100000)"
fill="#000000" stroke="none">
<path d="M2280 4720 l0 -480 -485 0 -485 0 0 -485 0 -485 485 0 485 0 0 -235
0 -235 -240 0 -240 0 0 -485 0 -485 485 0 485 0 0 240 0 240 730 0 730 0 0
-240 0 -240 485 0 485 0 0 485 0 485 -240 0 -240 0 0 235 0 235 485 0 485 0 0
485 0 485 -485 0 -485 0 0 480 0 480 -490 0 -490 0 0 -485 0 -485 485 0 485 0
0 -475 0 -475 -240 0 -240 0 0 240 0 240 -730 0 -730 0 0 -240 0 -240 -240 0
-240 0 0 475 0 475 485 0 485 0 0 485 0 485 -490 0 -490 0 0 -480z"/>
</g>
</svg>
